<?xml version="1.0" encoding="UTF-8" standalone="no"?>
<svg
   xmlns:dc="http://purl.org/dc/elements/1.1/"
   xmlns:cc="http://creativecommons.org/ns#"
   xmlns:rdf="http://www.w3.org/1999/02/22-rdf-syntax-ns#"
   xmlns:svg="http://www.w3.org/2000/svg"
   xmlns="http://www.w3.org/2000/svg"
   xmlns:sodipodi="http://sodipodi.sourceforge.net/DTD/sodipodi-0.dtd"
   xmlns:inkscape="http://www.inkscape.org/namespaces/inkscape"
   enable-background="new 0 0 595.3 841.9"
   id="Layer_1"
   version="1.1"
   viewBox="0 0 256.00001 255.99999"
   xml:space="preserve"
   sodipodi:docname="favicon.svg"
   inkscape:version="0.92.2 5c3e80d, 2017-08-06"
   width="256"
   height="256"
   inkscape:export-filename="/Users/federico_maggi/Downloads/cyberfacts/web/img/favicon.png"
   inkscape:export-xdpi="96"
   inkscape:export-ydpi="96"><metadata
     id="metadata4578"><rdf:RDF><cc:Work
         rdf:about=""><dc:format>image/svg+xml</dc:format><dc:type
           rdf:resource="http://purl.org/dc/dcmitype/StillImage" /><dc:title></dc:title></cc:Work></rdf:RDF></metadata><defs
     id="defs4576" /><sodipodi:namedview
     pagecolor="#ffffff"
     bordercolor="#666666"
     borderopacity="1"
     objecttolerance="10"
     gridtolerance="10"
     guidetolerance="10"
     inkscape:pageopacity="0"
     inkscape:pageshadow="2"
     inkscape:window-width="1167"
     inkscape:window-height="773"
     id="namedview4574"
     showgrid="false"
     inkscape:zoom="0.56063664"
     inkscape:cx="-75.637989"
     inkscape:cy="-65.969561"
     inkscape:window-x="0"
     inkscape:window-y="0"
     inkscape:window-maximized="0"
     inkscape:current-layer="Layer_1"
     inkscape:pagecheckerboard="true" /><path
     d="m 245.28848,128.46959 c -5.2022,32.9791 -15.27252,42.61987 -33.12229,64.76503 -17.84975,18.75656 -43.5744,50.11296 -79.98982,48.34707 C 99.197276,236.37948 89.556501,226.30916 67.411342,208.45941 48.654779,190.60966 17.298387,164.88501 19.064271,128.46959 24.266474,95.490482 34.336792,85.849707 52.186549,63.704552 70.036306,44.947992 95.76096,13.591607 132.17637,15.357483 c 32.9791,5.202205 42.61988,15.272523 64.76503,33.12228 18.75657,17.897482 50.06524,43.574403 48.34708,79.989827 z"
     id="path4544"
     inkscape:connector-curvature="0"
     style="fill:#3765af;stroke-width:0.47726625" /><g
     id="g4571"
     transform="matrix(0.47726625,0,0,0.47726625,-7.948998,-64.775515)"><path
       d="m 297.2,365.9 c -42.9,0 -77.7,34.8 -77.7,77.7 0,42.9 34.8,77.7 77.7,77.7 42.9,0 77.7,-34.8 77.7,-77.7 0,-42.9 -34.8,-77.7 -77.7,-77.7 z m 67.5,75.2 h -30.1 c -0.3,-11.1 -2.3,-21.7 -5.8,-31.4 6.8,-2.8 13,-6.6 18.7,-11 10.3,11.4 16.6,26.2 17.2,42.4 z m -70.3,70.1 c -8.3,-6.9 -15.3,-15.9 -20.4,-26.4 6.6,-2.1 13.5,-3.2 20.7,-3.4 v 29.8 c -0.1,0 -0.2,0 -0.3,0 z m 5.5,-135.1 c 9.5,7.9 17.2,18.4 22.4,30.7 -7.1,2.4 -14.7,3.9 -22.6,4.1 v -34.8 c 0.1,0 0.1,0 0.2,0 z m 8.4,0.8 c 13.8,2.3 26.2,8.8 35.9,18.1 -5.2,4 -11,7.4 -17.2,10 -4.6,-10.7 -11,-20.3 -18.7,-28.1 z m -13.6,-0.8 v 34.8 c -7.9,-0.3 -15.5,-1.7 -22.6,-4.1 5.2,-12.3 12.9,-22.8 22.4,-30.7 0,0 0.1,0 0.2,0 z m -27.4,29 c -6.2,-2.6 -11.9,-6 -17.2,-10 9.7,-9.4 22.1,-15.8 35.9,-18.1 -7.7,7.7 -14.1,17.3 -18.7,28.1 z m 2.8,6.3 c 7.7,2.7 16,4.2 24.5,4.5 v 25.2 h -30 c 0.4,-10.5 2.2,-20.5 5.5,-29.7 z m 24.6,34.7 v 30.2 c -7.9,0.2 -15.5,1.5 -22.8,3.9 -4.3,-10.3 -6.9,-21.9 -7.2,-34.1 z m -8.6,64.2 c -12.4,-2.1 -23.7,-7.5 -32.8,-15.3 4.9,-3.4 10.3,-6.3 16,-8.5 4.3,9.1 10,17.1 16.8,23.8 z m 13.6,0.9 v -29.8 c 7.2,0.2 14.1,1.4 20.7,3.4 -5.1,10.5 -12.1,19.5 -20.4,26.4 -0.1,0 -0.2,0 -0.3,0 z m 25.4,-24.7 c 5.7,2.2 11,5.1 16,8.5 -9.2,7.8 -20.4,13.2 -32.8,15.3 6.7,-6.7 12.4,-14.7 16.8,-23.8 z m -2.7,-6.3 c -7.2,-2.3 -14.9,-3.6 -22.8,-3.9 v -30.2 h 30 c -0.3,12.2 -2.8,23.8 -7.2,34.1 z m -22.7,-39.1 v -25.2 c 8.6,-0.3 16.8,-1.8 24.5,-4.5 3.3,9.2 5.2,19.2 5.4,29.7 z m -53,-42.4 c 5.7,4.4 12,8.2 18.7,11 -3.5,9.7 -5.5,20.3 -5.8,31.4 h -30.1 c 0.7,-16.2 7.1,-31 17.2,-42.4 z m -17.1,47.4 h 30.1 c 0.3,12.8 3,24.9 7.5,35.8 -6.4,2.5 -12.3,5.8 -17.7,9.7 -11.8,-11.7 -19.2,-27.7 -19.9,-45.5 z m 115.3,45.5 c -5.5,-3.9 -11.4,-7.2 -17.7,-9.7 4.6,-10.9 7.2,-23 7.5,-35.8 h 30.1 c -0.7,17.8 -8.2,33.8 -19.9,45.5 z"
       id="world"
       inkscape:connector-curvature="0"
       style="fill:#ffffff" /><circle
       cx="332.5"
       cy="444.20001"
       r="13.5"
       id="circle4547"
       style="fill:#ffffff" /><circle
       cx="268.70001"
       cy="408.10001"
       r="13.5"
       id="circle4549"
       style="fill:#ffffff" /><path
       d="m 414.2,446.4 h -41.1 c -0.7,0 -1.3,-0.6 -1.3,-1.3 v -1.8 c 0,-0.7 0.6,-1.3 1.3,-1.3 h 41.1 c 0.7,0 1.3,0.6 1.3,1.3 v 1.8 c 0,0.7 -0.6,1.3 -1.3,1.3 z"
       id="path4551"
       inkscape:connector-curvature="0"
       style="fill:#ffffff" /><path
       d="m 451.7,464.8 h -37 c -1.2,0 -2.2,-1 -2.2,-2.2 v -37 c 0,-1.2 1,-2.2 2.2,-2.2 h 37 c 1.2,0 2.2,1 2.2,2.2 v 37 c 0,1.3 -1,2.2 -2.2,2.2 z"
       id="path4553"
       inkscape:connector-curvature="0"
       style="fill:#ffffff" /><path
       d="M 222.6,446.9 H 165 c -0.7,0 -1.3,-0.6 -1.3,-1.3 v -1.8 c 0,-0.7 0.6,-1.3 1.3,-1.3 h 57.6 c 0.7,0 1.3,0.6 1.3,1.3 v 1.8 c 0,0.7 -0.6,1.3 -1.3,1.3 z"
       id="path4555"
       inkscape:connector-curvature="0"
       style="fill:#ffffff" /><path
       d="m 295.2,316.2 v 57.6 c 0,0.7 0.6,1.3 1.3,1.3 h 1.8 c 0.7,0 1.3,-0.6 1.3,-1.3 v -57.6 c 0,-0.7 -0.6,-1.3 -1.3,-1.3 h -1.8 c -0.7,0 -1.3,0.6 -1.3,1.3 z"
       id="path4557"
       inkscape:connector-curvature="0"
       style="fill:#ffffff" /><path
       d="M 243.5,396.4 199,368.8 c -0.6,-0.4 -0.8,-1.2 -0.4,-1.8 l 0.9,-1.5 c 0.4,-0.6 1.2,-0.8 1.8,-0.4 l 44.5,27.6 c 0.6,0.4 0.8,1.2 0.4,1.8 l -0.9,1.5 c -0.4,0.6 -1.2,0.7 -1.8,0.4 z"
       id="path4559"
       inkscape:connector-curvature="0"
       style="fill:#ffffff" /><path
       d="m 172.3,465.3 h -37 c -1.2,0 -2.2,-1 -2.2,-2.2 v -37 c 0,-1.2 1,-2.2 2.2,-2.2 h 37 c 1.2,0 2.2,1 2.2,2.2 v 37 c 0,1.3 -1,2.2 -2.2,2.2 z"
       id="path4561"
       inkscape:connector-curvature="0"
       style="fill:#ffffff" /><path
       d="m 206.2,373 h -37 c -1.2,0 -2.2,-1 -2.2,-2.2 v -37 c 0,-1.2 1,-2.2 2.2,-2.2 h 37 c 1.2,0 2.2,1 2.2,2.2 v 37 c -0.1,1.2 -1,2.2 -2.2,2.2 z"
       id="path4563"
       inkscape:connector-curvature="0"
       style="fill:#ffffff" /><path
       d="m 315.9,329.8 h -37 c -1.2,0 -2.2,-1 -2.2,-2.2 v -37 c 0,-1.2 1,-2.2 2.2,-2.2 h 37 c 1.2,0 2.2,1 2.2,2.2 v 37 c 0,1.2 -1,2.2 -2.2,2.2 z"
       id="path4565"
       inkscape:connector-curvature="0"
       style="fill:#ffffff" /><path
       d="m 410.4,373.4 h -37 c -1.2,0 -2.2,-1 -2.2,-2.2 v -37 c 0,-1.2 1,-2.2 2.2,-2.2 h 37 c 1.2,0 2.2,1 2.2,2.2 v 37 c 0,1.2 -1,2.2 -2.2,2.2 z"
       id="path4567"
       inkscape:connector-curvature="0"
       style="fill:#ffffff" /><path
       d="M 352.5,393.6 382,364 c 0.5,-0.5 0.5,-1.4 0,-1.9 l -1.2,-1.2 c -0.5,-0.5 -1.4,-0.5 -1.9,0 l -29.5,29.6 c -0.5,0.5 -0.5,1.4 0,1.9 l 1.2,1.2 c 0.5,0.5 1.3,0.5 1.9,0 z"
       id="path4569"
       inkscape:connector-curvature="0"
       style="fill:#ffffff" /></g></svg>